<svg width="131" height="60" viewBox="0 0 131 60" fill="none" xmlns="http://www.w3.org/2000/svg">
<path d="M15.5017 45.4369L28.0922 14.199H32.2406L44.6856 45.4369H39.7367L35.9522 35.9709H24.1622L20.4506 45.4369H15.5017ZM25.7633 32.0388H34.5694L31.2944 23.1553C31.1004 22.6214 30.9306 22.1117 30.785 21.6262C30.6394 21.1408 30.5181 20.6553 30.4211 20.1699C30.3241 19.6845 30.2756 19.2233 30.2756 18.7864H29.9844C29.9844 19.2233 29.9359 19.6845 29.8389 20.1699C29.7904 20.6068 29.6933 21.0922 29.5478 21.6262C29.4507 22.1117 29.2809 22.6214 29.0383 23.1553L25.7633 32.0388ZM29.9844 60C25.8604 60 21.9789 59.2233 18.34 57.6699C14.7011 56.1165 11.4989 53.9806 8.73333 51.2621C6.0163 48.4951 3.88148 45.2913 2.32889 41.6505C0.776296 38.0097 0 34.1262 0 30C0 25.8252 0.776296 21.9417 2.32889 18.3495C3.88148 14.7087 6.0163 11.5291 8.73333 8.81068C11.4989 6.04369 14.7011 3.8835 18.34 2.3301C21.9789 0.776699 25.8604 0 29.9844 0C34.157 0 38.0385 0.776699 41.6289 2.3301C45.2678 3.8835 48.4457 6.04369 51.1628 8.81068C53.9283 11.5291 56.0874 14.7087 57.64 18.3495C59.1926 21.9417 59.9689 25.8252 59.9689 30C59.9689 34.1262 59.1926 38.0097 57.64 41.6505C56.0874 45.2913 53.9283 48.4951 51.1628 51.2621C48.4457 53.9806 45.2678 56.1165 41.6289 57.6699C38.0385 59.2233 34.157 60 29.9844 60ZM29.9844 55.9223C33.5748 55.9223 36.9226 55.267 40.0278 53.9563C43.1815 52.5971 45.947 50.7282 48.3244 48.3495C50.7019 45.9709 52.5456 43.2282 53.8556 40.1214C55.2141 36.966 55.8933 33.5922 55.8933 30C55.8933 26.4078 55.2141 23.0583 53.8556 19.9515C52.5456 16.7961 50.7019 14.0291 48.3244 11.6505C45.947 9.27184 43.1815 7.42718 40.0278 6.1165C36.9226 4.75728 33.5748 4.07767 29.9844 4.07767C26.3941 4.07767 23.022 4.75728 19.8683 6.1165C16.7631 7.42718 14.0219 9.27184 11.6444 11.6505C9.26704 14.0291 7.39907 16.7961 6.04056 19.9515C4.73056 23.0583 4.07556 26.4078 4.07556 30C4.07556 33.5922 4.73056 36.966 6.04056 40.1214C7.39907 43.2282 9.26704 45.9709 11.6444 48.3495C14.0219 50.7282 16.7631 52.5971 19.8683 53.9563C23.022 55.267 26.3941 55.9223 29.9844 55.9223Z" fill="#172332"/>
<path d="M93.8833 45.4369V14.199H112.369V18.2039H98.905V27.1602H111.641V31.0194H98.905V41.432H112.369V45.4369H93.8833ZM74.5244 58.2524V1.74757H131V58.2524H74.5244ZM78.5272 54.2476H126.997V5.75243H78.5272V54.2476Z" fill="#172332"/>
</svg>
