<svg width="1380" height="86" viewBox="0 0 1380 86" fill="none" xmlns="http://www.w3.org/2000/svg">
<path d="M0 84.1228L33.4085 1.99454H48.1649L81.6914 84.1228H67.7614L58.6714 60.4229H22.3117L13.3398 84.1228H0ZM26.3254 49.9809H54.7758L43.2067 19.8281L40.6096 12.4366C39.7833 14.9004 38.8388 17.3643 37.7764 19.8281L26.3254 49.9809Z" fill="#172332"/>
<path d="M85.1988 43.2933C85.1988 25.5771 92.7541 12.2019 105.149 5.16234C111.288 1.75989 118.135 0 125.808 0C144.697 0 158.627 11.146 160.279 26.3984H147.176C145.641 17.0123 137.259 10.5593 125.927 10.5593C109.635 10.5593 98.1845 22.5266 98.1845 43.2933C98.1845 62.4175 109.281 75.558 125.454 75.558C139.738 75.558 149.183 67.1105 149.183 52.5621V51.3888H124.51V40.8295H160.634V84.1228H149.773V80.8377C149.773 78.2565 149.891 75.6753 150.127 72.9768C145.523 80.603 136.079 86 124.274 86C108.691 86 96.5318 78.2565 90.0389 65.3506C86.8516 58.8977 85.1988 51.6235 85.1988 43.2933Z" fill="#172332"/>
<path d="M177.424 84.1228V1.99454H232.554V12.4366H189.938V36.7231H230.784V47.2824H189.938V73.5634H234.089V84.1228H177.424Z" fill="#172332"/>
<path d="M249.938 84.1228V1.99454H268.827L308.374 68.9877C308.256 64.2947 308.138 60.5402 308.138 57.8417V1.99454H320.769V84.1228H303.77L262.334 14.0791C262.452 16.6603 262.452 20.1801 262.452 24.6385V84.1228H249.938Z" fill="#172332"/>
<path d="M335.942 42.5894C335.942 25.6944 343.38 12.3192 355.657 5.27967C361.678 1.75989 368.524 0 376.198 0C396.03 0 410.433 12.0846 412.085 29.3315H398.628C396.739 17.5989 388.711 10.5593 375.962 10.5593C360.025 10.5593 349.046 22.7613 349.046 42.5894C349.046 62.6521 360.261 75.558 375.844 75.558C388.711 75.558 397.447 68.0491 399.454 56.4338H412.203C411.141 65.4679 407.363 72.7422 400.871 78.0218C394.378 83.3015 386.114 86 375.844 86C351.879 86 335.942 69.457 335.942 42.5894Z" fill="#172332"/>
<path d="M444.775 49.5116L415.381 1.99454H429.783L446.074 29.8008C447.609 32.2647 449.261 35.3151 451.15 38.9522L456.462 29.8008L472.99 1.99454H487.038L457.407 49.5116V84.1228H444.775V49.5116Z" fill="#172332"/>
<path d="M520.511 84.1228V1.99454H575.641V12.4366H533.024V36.7231H573.87V47.2824H533.024V73.5634H577.175V84.1228H520.511Z" fill="#172332"/>
<path d="M648.037 73.5634V84.1228H593.025V1.99454H605.538V73.5634H648.037Z" fill="#172332"/>
<path d="M659.083 84.1228V1.99454H714.212V12.4366H671.596V36.7231H712.442V47.2824H671.596V73.5634H715.747V84.1228H659.083Z" fill="#172332"/>
<path d="M725.488 42.5894C725.488 25.6944 732.925 12.3192 745.203 5.27967C751.223 1.75989 758.07 0 765.744 0C785.576 0 799.979 12.0846 801.631 29.3315H788.173C786.285 17.5989 778.257 10.5593 765.508 10.5593C749.571 10.5593 738.592 22.7613 738.592 42.5894C738.592 62.6521 749.807 75.558 765.39 75.558C778.257 75.558 786.993 68.0491 789 56.4338H801.749C800.687 65.4679 796.909 72.7422 790.416 78.0218C783.924 83.3015 775.66 86 765.39 86C741.425 86 725.488 69.457 725.488 42.5894Z" fill="#172332"/>
<path d="M805.627 1.99454H874.45V12.4366H846.354V84.1228H833.841V12.4366H805.627V1.99454Z" fill="#172332"/>
<path d="M885.616 1.99454H921.268C937.323 1.99454 947.475 9.85539 947.475 23.5825C947.475 28.6276 945.941 32.8513 942.871 36.3711C939.802 39.8909 936.142 42.2374 932.011 43.528C940.51 44.9359 945.823 51.9754 945.823 62.4175V84.1228H933.309V64.764C933.309 53.1487 929.059 49.1596 917.372 49.1596H898.13V84.1228H885.616V1.99454ZM898.13 12.4366V38.6003H918.553C928.941 38.6003 934.608 34.0246 934.608 25.4598C934.608 16.895 928.941 12.4366 918.553 12.4366H898.13Z" fill="#172332"/>
<path d="M959.17 43.0587C959.17 26.0464 966.489 12.4366 978.53 5.27967C984.551 1.75989 991.28 0 998.835 0C1013.95 0 1026.46 7.50886 1033.42 20.5321C1036.85 27.1023 1038.62 34.6112 1038.62 43.0587C1038.62 60.3056 1031.3 73.6808 1019.26 80.7203C1013.24 84.2401 1006.39 86 998.835 86C983.724 86 971.211 78.8431 964.364 65.8199C960.94 59.367 959.17 51.7408 959.17 43.0587ZM972.155 43.0587C972.155 63.1214 982.898 75.558 998.835 75.558C1014.77 75.558 1025.51 63.3561 1025.51 43.0587C1025.51 23.1132 1014.65 10.5593 998.835 10.5593C983.016 10.5593 972.155 22.9959 972.155 43.0587Z" fill="#172332"/>
<path d="M1053.82 84.1228V1.99454H1072.7L1112.25 68.9877C1112.13 64.2947 1112.02 60.5402 1112.02 57.8417V1.99454H1124.65V84.1228H1107.65L1066.21 14.0791C1066.33 16.6603 1066.33 20.1801 1066.33 24.6385V84.1228H1053.82Z" fill="#172332"/>
<path d="M1144.66 84.1228V1.99454H1157.17V84.1228H1144.66Z" fill="#172332"/>
<path d="M1172.56 42.5894C1172.56 25.6944 1180 12.3192 1192.28 5.27967C1198.3 1.75989 1205.14 0 1212.82 0C1232.65 0 1247.05 12.0846 1248.7 29.3315H1235.25C1233.36 17.5989 1225.33 10.5593 1212.58 10.5593C1196.64 10.5593 1185.66 22.7613 1185.66 42.5894C1185.66 62.6521 1196.88 75.558 1212.46 75.558C1225.33 75.558 1234.07 68.0491 1236.07 56.4338H1248.82C1247.76 65.4679 1243.98 72.7422 1237.49 78.0218C1231 83.3015 1222.73 86 1212.46 86C1188.5 86 1172.56 69.457 1172.56 42.5894Z" fill="#172332"/>
<path d="M1337.97 46.9304H1329.12V1.99454H1342.11L1352.85 31.0914L1354.62 36.2537C1355.45 33.9072 1356.04 32.1473 1356.51 31.0914L1367.37 1.99454H1380V46.9304H1371.15V19.1241C1371.15 16.543 1371.15 14.4311 1371.26 12.9059C1370.2 15.7217 1369.49 17.8336 1368.9 19.1241L1358.75 46.9304H1350.13L1340.1 19.2415C1339.51 17.2469 1338.68 15.2524 1337.86 13.0232C1337.97 14.5484 1337.97 16.6603 1337.97 19.2415V46.9304ZM1298.66 10.2074H1283.2V1.99454H1323.34V10.2074H1307.87V46.9304H1298.66V10.2074Z" fill="#172332"/>
</svg>
